<svg viewBox="0 0 247.7 38" version="1.1" xmlns="http://www.w3.org/2000/svg" id="Calque_1">
  
  <defs>
    <style>
      .st0 {
        fill: #fff;
      }
    </style>
  </defs>
  <polygon points="36.9 5.7 32.6 5.7 32.6 27.1 47 27.1 47 23.5 36.9 23.5 36.9 5.7" class="st0"></polygon>
  <path d="M61.7,17c0-3.6-1.9-5.7-6.5-5.7s-6.5,2.4-6.6,5.1h3.6c.1-1.5,1-2.2,3-2.2s2.6.7,2.6,1.8-1.2,1.4-3.7,1.7c-3.4.5-6.2,1.6-6.2,5s2.2,4.7,5.4,4.7,3.8-.9,4.5-2.1h0c0,.7.2,1.4.5,1.7h3.9v-.2c-.4-.3-.5-1-.5-2.1v-7.8ZM57.8,21.7c0,1.5-1.3,2.9-3.6,2.9s-2.4-.5-2.4-1.9,1.1-1.9,3.2-2.4c1-.2,2.1-.5,2.8-.9v2.3Z" class="st0"></path>
  <path d="M80.8,15.6h0c2-.8,3.4-2.2,3.4-4.4s-.5-3-1.7-4c-1.1-1-2.9-1.6-5.2-1.6h-9.6v21.4h9.8c2.3,0,4.2-.6,5.4-1.7,1.3-1.1,1.9-2.5,1.9-4.5s-1.6-4.6-4-5.3ZM72,9.2h4.8c1.9,0,3.1.9,3.1,2.5s-1.3,2.6-3.2,2.6h-4.7v-5.1ZM77,23.5h-5v-6h4.9c2,0,3.5,1,3.5,3.1s-1.3,2.9-3.4,2.9Z" class="st0"></path>
  <path d="M94,11.3c-4.8,0-8,3.5-8,8.1s3.3,8.1,8,8.1,8-3.5,8-8.1-3.3-8.1-8-8.1ZM94,24.4c-2.5,0-3.9-2-3.9-5s1.4-5,3.9-5,3.9,2,3.9,5-1.4,5-3.9,5Z" class="st0"></path>
  <rect height="3.7" width="4.1" y="5.7" x="103.4" class="st0"></rect>
  <rect height="15.4" width="4.1" y="11.7" x="103.4" class="st0"></rect>
  <path d="M114.7,22.6v-8.2h2.6v-2.7h-2.6v-4.8h-4v4.8h-2.1v2.7h2.1v9c0,2.9,2.2,3.7,4.2,3.7s2.5,0,2.5,0v-3s-.7,0-1.2,0c-.9,0-1.5-.4-1.5-1.5Z" class="st0"></path>
  <path d="M125.5,11.3c-4.5,0-7.6,3.5-7.6,8.1s2.9,8.2,8,8.2,6.4-2.3,7-5h-4c-.4,1.2-1.4,1.9-3,1.9-2.3,0-3.6-1.5-3.9-3.8h11.2c0-5.5-2.6-9.3-7.6-9.3ZM122,17.8c.4-2,1.4-3.3,3.6-3.3s3.2,1.3,3.3,3.3h-6.8Z" class="st0"></path>
  <path d="M146.4,24.3c-2.5,0-3.7-1.9-3.7-4.9s1.3-4.9,3.7-4.9,2.6,1,2.8,2.4h4c-.5-3.3-3-5.6-7-5.6s-7.7,3.5-7.7,8.1,3,8.1,7.9,8.1,6.7-2.6,6.9-5.9h-3.9c-.3,1.7-1.4,2.6-3.1,2.6Z" class="st0"></path>
  <path d="M162.1,11.3c-4.8,0-8,3.5-8,8.1s3.3,8.1,8,8.1,8-3.5,8-8.1-3.3-8.1-8-8.1ZM162.1,24.4c-2.5,0-3.9-2-3.9-5s1.4-5,3.9-5,3.9,2,3.9,5-1.4,5-3.9,5Z" class="st0"></path>
  <path d="M179.8,11.3c-2.1,0-3.5.9-4.6,2.5h0v-2.1h-4v15.4h4.1v-8.7c0-2.1,1.3-3.5,3.1-3.5s2.7,1.2,2.7,2.8v9.4h4.1v-10c0-3.4-2.1-5.8-5.3-5.8Z" class="st0"></path>
  <path d="M194.1,24.3c-2.5,0-3.7-1.9-3.7-4.9s1.3-4.9,3.7-4.9,2.5,1,2.8,2.4h4c-.5-3.3-3-5.6-7-5.6s-7.7,3.5-7.7,8.1,3,8.1,7.9,8.1,6.7-2.6,6.9-5.9h-3.9c-.3,1.7-1.4,2.6-3.1,2.6Z" class="st0"></path>
  <path d="M209.2,11.3c-4.5,0-7.6,3.5-7.6,8.1s2.9,8.2,8,8.2,6.4-2.3,7-5h-4c-.4,1.2-1.4,1.9-3,1.9-2.3,0-3.6-1.5-3.9-3.8h11.2c0-5.5-2.6-9.3-7.6-9.3ZM205.6,17.8c.4-2,1.4-3.3,3.6-3.3s3.2,1.3,3.3,3.3h-6.8Z" class="st0"></path>
  <path d="M226.6,11.3c-2.1,0-3.5,1-4.5,2.3h0v-1.9h-3.9v20.4h4.1v-6.8h0c.9,1.3,2.3,2.2,4.4,2.2,4,0,6.7-3.2,6.7-8.1s-2.6-8.1-6.7-8.1ZM225.7,24.2c-2.4,0-3.7-1.8-3.7-4.6s1-5,3.6-5,3.5,2,3.5,5-1.3,4.6-3.4,4.6Z" class="st0"></path>
  <path d="M240.9,24.1c-.9,0-1.5-.4-1.5-1.5v-8.2h2.6v-2.7h-2.6v-4.8h-4v4.8h-2.1v2.7h2.1v9c0,2.9,2.2,3.7,4.2,3.7s2.6,0,2.6,0v-3s-.7,0-1.2,0Z" class="st0"></path>
  <path d="M5.7,27.1h21.4V5.7H5.7v21.4ZM8.4,12.4l8-4,8,4v8l-8,4-8-4v-8Z" class="st0"></path>
</svg>